<svg width="70" height="31" viewBox="0 0 70 31" fill="none" xmlns="http://www.w3.org/2000/svg">
<path d="M21.1358 32.203C20.1111 32.203 19.1348 32.0387 18.2068 31.71C17.2788 31.3813 16.5731 30.985 16.0898 30.521C15.9351 30.3277 15.8578 30.1343 15.8578 29.941C15.8578 29.767 15.9061 29.6123 16.0028 29.477C16.1188 29.3417 16.2541 29.274 16.4088 29.274C16.5441 29.274 16.6794 29.332 16.8148 29.448C17.5108 29.97 18.1874 30.3567 18.8448 30.608C19.5021 30.8593 20.2658 30.985 21.1358 30.985C22.4504 30.985 23.4558 30.7723 24.1518 30.347C24.8478 29.9023 25.1958 29.2547 25.1958 28.404C25.1958 27.8627 25.0314 27.418 24.7028 27.07C24.3741 26.722 23.9681 26.4513 23.4848 26.258C23.0208 26.0453 22.3731 25.823 21.5418 25.591C20.5751 25.301 19.7921 25.0303 19.1928 24.779C18.6128 24.5083 18.1101 24.1217 17.6848 23.619C17.2788 23.1163 17.0758 22.459 17.0758 21.647C17.0564 20.4097 17.5204 19.4333 18.4678 18.718C19.4151 17.9833 20.6718 17.616 22.2378 17.616C23.2431 17.616 24.1711 17.7803 25.0218 18.109C25.8724 18.4377 26.5298 18.8823 26.9938 19.443C27.1098 19.5783 27.1678 19.7233 27.1678 19.878C27.1678 20.052 27.1098 20.197 26.9938 20.313C26.8971 20.429 26.7618 20.487 26.5878 20.487C26.3751 20.487 26.1624 20.3903 25.9498 20.197C25.5244 19.8103 24.9831 19.4913 24.3258 19.24C23.6878 18.9693 23.0208 18.834 22.3248 18.834C21.0681 18.834 20.1014 19.066 19.4248 19.53C18.7674 19.994 18.4388 20.69 18.4388 21.618C18.4388 22.3913 18.7384 22.9617 19.3378 23.329C19.9371 23.6963 20.8361 24.0443 22.0348 24.373C23.0014 24.6437 23.7844 24.9143 24.3838 25.185C24.9831 25.4363 25.4858 25.8133 25.8918 26.316C26.3171 26.8187 26.5298 27.4857 26.5298 28.317C26.5298 29.5157 26.0368 30.463 25.0508 31.159C24.0648 31.855 22.7598 32.203 21.1358 32.203ZM37.3928 17.616C38.5721 17.616 39.6161 17.8963 40.5248 18.457C41.4334 19.0177 42.1391 19.8103 42.6418 20.835C43.1444 21.8403 43.3958 23.0197 43.3958 24.373C43.3958 25.939 43.1154 27.3117 42.5548 28.491C42.0134 29.6703 41.2498 30.5887 40.2638 31.246C39.2778 31.884 38.1371 32.203 36.8418 32.203C35.6624 32.203 34.6281 31.9323 33.7388 31.391C32.8688 30.8497 32.2308 30.0957 31.8248 29.129L31.2448 36.785C31.2254 36.9783 31.1481 37.1233 31.0128 37.22C30.8774 37.3167 30.7324 37.365 30.5778 37.365C30.4038 37.365 30.2588 37.3167 30.1428 37.22C30.0461 37.1233 30.0074 36.9783 30.0268 36.785L31.4768 18.312C31.5154 17.8867 31.7378 17.674 32.1438 17.674C32.5691 17.674 32.7624 17.8867 32.7238 18.312L32.5498 20.313C33.0138 19.4623 33.6808 18.805 34.5508 18.341C35.4401 17.8577 36.3874 17.616 37.3928 17.616ZM36.9868 31.014C38.5721 31.014 39.8094 30.4243 40.6988 29.245C41.6074 28.0463 42.0618 26.4127 42.0618 24.344C42.0618 22.5847 41.6364 21.2217 40.7858 20.255C39.9544 19.2883 38.7848 18.805 37.2768 18.805C35.6721 18.805 34.4154 19.4043 33.5068 20.603C32.5981 21.8017 32.1438 23.4547 32.1438 25.562C32.1438 27.3213 32.5594 28.6747 33.3908 29.622C34.2221 30.55 35.4208 31.014 36.9868 31.014ZM58.2009 18.196C58.3169 17.9833 58.4813 17.877 58.6939 17.877C58.8486 17.877 58.9839 17.935 59.0999 18.051C59.2159 18.1477 59.2739 18.283 59.2739 18.457C59.2739 18.5537 59.2449 18.66 59.1869 18.776L49.6169 36.988C49.4816 37.2393 49.2689 37.365 48.9789 37.365C48.8243 37.365 48.6889 37.3263 48.5729 37.249C48.4569 37.1717 48.3989 37.0653 48.3989 36.93C48.3989 36.8527 48.4279 36.7657 48.4859 36.669L50.8929 32.116L45.9049 18.747C45.8663 18.5923 45.8469 18.4957 45.8469 18.457C45.8469 18.283 45.9049 18.1477 46.0209 18.051C46.1369 17.935 46.2723 17.877 46.4269 17.877C46.7169 17.877 46.9199 18.022 47.0359 18.312L51.5889 30.956L58.2009 18.196ZM75.9752 20.603C76.0526 20.5837 76.1879 20.574 76.3812 20.574C76.6712 20.574 76.9129 20.632 77.1062 20.748C77.2996 20.8447 77.3866 21.0187 77.3672 21.27C77.1932 22.6813 77.0482 23.9187 76.9322 24.982C76.8356 26.0453 76.7486 26.925 76.6712 27.621L76.3232 30.956C76.2846 31.304 76.0236 31.6133 75.5402 31.884C75.0762 32.1353 74.6122 32.261 74.1482 32.261C73.8776 32.261 73.6649 32.203 73.5102 32.087C73.3556 31.971 73.2879 31.797 73.3072 31.565C73.4039 30.637 73.5876 28.9357 73.8582 26.461C74.1482 23.967 74.2836 22.7297 74.2642 22.749C73.8196 24.2957 73.2299 25.6587 72.4952 26.838C71.7606 28.0173 70.8036 28.9453 69.6242 29.622C69.1022 29.9313 68.5222 30.173 67.8842 30.347C67.2462 30.5017 66.5986 30.579 65.9412 30.579C64.5492 30.579 63.3892 30.202 62.4612 29.448C61.2046 28.404 60.5762 27.0217 60.5762 25.301C60.5762 23.3483 61.2529 21.2217 62.6062 18.921C63.9789 16.6203 65.4482 14.6 67.0142 12.86C68.2129 11.5067 69.3536 10.3853 70.4362 9.496C71.5189 8.58733 72.6789 7.959 73.9162 7.611C74.3609 7.495 74.7476 7.437 75.0762 7.437C75.8109 7.437 76.3619 7.65933 76.7292 8.104C77.1159 8.54867 77.3092 9.16733 77.3092 9.96C77.3092 10.3467 77.2899 10.6367 77.2512 10.83C77.1932 11.178 76.9129 11.4777 76.4102 11.729C75.9269 11.9803 75.4532 12.106 74.9892 12.106C74.7186 12.106 74.5059 12.0577 74.3512 11.961C74.2159 11.845 74.1676 11.6807 74.2062 11.468C74.2642 11.12 74.2932 10.8397 74.2932 10.627C74.2932 10.1437 74.1579 9.76667 73.8872 9.496C73.1912 9.94067 72.7949 10.2017 72.6982 10.279C70.5716 11.845 68.5416 14.1457 66.6082 17.181C65.7576 18.515 65.0712 19.7813 64.5492 20.98C64.0272 22.1787 63.7662 23.358 63.7662 24.518C63.7662 25.2527 63.9209 25.968 64.2302 26.664C64.5589 27.36 65.0326 27.853 65.6512 28.143C66.1346 28.375 66.5792 28.491 66.9852 28.491C68.0099 28.491 68.8702 27.9593 69.5662 26.896C70.2622 25.8133 70.8132 24.576 71.2192 23.184C70.3686 23.3 69.7306 23.3773 69.3052 23.416L69.0152 23.445C68.5899 23.445 68.3772 23.3097 68.3772 23.039C68.3772 22.7877 68.5512 22.4977 68.8992 22.169C69.2472 21.8403 69.5856 21.647 69.9142 21.589C71.7896 21.241 73.8099 20.9123 75.9752 20.603ZM83.9083 8.365C83.6956 8.307 83.483 8.278 83.2703 8.278C82.845 8.278 82.468 8.38433 82.1393 8.597C81.714 8.829 81.4723 9.061 81.4143 9.293C81.163 10.2017 80.9986 10.801 80.9213 11.091V11.178C80.9213 11.2747 80.96 11.3713 81.0373 11.468C81.1146 11.5453 81.2016 11.6033 81.2983 11.642C81.453 11.7193 81.627 11.758 81.8203 11.758C82.1296 11.758 82.497 11.671 82.9223 11.497C83.367 11.3037 83.657 11.0427 83.7923 10.714C83.9083 10.3853 84.0726 9.80533 84.2853 8.974V8.916C84.2853 8.81933 84.2466 8.72267 84.1693 8.626C84.092 8.51 84.005 8.423 83.9083 8.365ZM82.7773 19.994C82.6613 20.7673 82.439 22.169 82.1103 24.199C81.801 26.2097 81.54 28.0367 81.3273 29.68C81.2693 30.0473 81.0083 30.3663 80.5443 30.637C80.0996 30.8883 79.6453 31.014 79.1813 31.014C78.872 31.014 78.6303 30.956 78.4563 30.84C78.3016 30.7047 78.2436 30.5113 78.2823 30.26C78.611 28.3267 78.959 26.1227 79.3263 23.648C79.713 21.154 79.9836 19.3753 80.1383 18.312L80.7473 14.339C80.8053 13.991 81.0663 13.6913 81.5303 13.44C82.0136 13.1887 82.4776 13.063 82.9223 13.063C83.193 13.063 83.4056 13.121 83.5603 13.237C83.715 13.353 83.773 13.5173 83.7343 13.73L82.7773 19.994Z" transform="translate(-14.9399 -6.68388)" fill="#D14197"/>
</svg>
